<?xml version="1.0" encoding="utf-8"?>
<!-- Generator: Adobe Illustrator 25.2.3, SVG Export Plug-In . SVG Version: 6.00 Build 0)  -->
<svg version="1.1" id="图层_1" xmlns="http://www.w3.org/2000/svg" xmlns:xlink="http://www.w3.org/1999/xlink" x="0px" y="0px"
	 viewBox="0 0 500 500" style="enable-background:new 0 0 500 500;" xml:space="preserve">
<style type="text/css">
	.st0{fill:#00B8F3;}
	.st1{fill:#FE4366;}
	.st2{fill:#FFFFFF;}
</style>
<g>
	<path class="st0" d="M306,247.9c0,57.1-53.2,103.4-118.8,103.4c-23.9,0-46.1-6.1-64.7-16.7l-43.3,20.8l14-44.3
		c-15.6-17.4-24.8-39.4-24.8-63.2c0-57.1,53.2-103.4,118.9-103.4C252.8,144.6,306,190.8,306,247.9z"/>
	<path class="st1" d="M194,247.9c0,57.1,53.2,103.4,118.8,103.4c23.9,0,46.1-6.1,64.7-16.7l43.3,20.8l-14-44.3
		c15.6-17.4,24.8-39.4,24.8-63.2c0-57.1-53.2-103.4-118.9-103.4C247.2,144.6,194,190.8,194,247.9z"/>
	<circle class="st0" cx="250.1" cy="235.6" r="25.4"/>
	<circle class="st2" cx="250.1" cy="226" r="9.6"/>
</g>
</svg>
